<svg xmlns="http://www.w3.org/2000/svg" xmlns:xlink="http://www.w3.org/1999/xlink" width="384" zoomAndPan="magnify" viewBox="0 0 288 383.999986" height="512" preserveAspectRatio="xMidYMid meet" version="1.0"><defs><clipPath id="1cdd984a6e"><path d="M 108.472656 100.34375 L 179.722656 100.34375 L 179.722656 191.84375 L 108.472656 191.84375 Z M 108.472656 100.34375 " clip-rule="nonzero"/></clipPath></defs><path fill="#000000" d="M 129.121094 376.25 C 20.214844 218.367188 0 202.164062 0 144.140625 C 0 64.660156 64.429688 0.226562 143.910156 0.226562 C 223.394531 0.226562 287.824219 64.660156 287.824219 144.140625 C 287.824219 202.164062 267.609375 218.367188 158.703125 376.25 C 151.554688 386.574219 136.269531 386.574219 129.121094 376.25 Z M 143.910156 204.105469 C 177.027344 204.105469 203.875 177.257812 203.875 144.140625 C 203.875 111.023438 177.027344 84.175781 143.910156 84.175781 C 110.796875 84.175781 83.949219 111.023438 83.949219 144.140625 C 83.949219 177.257812 110.796875 204.105469 143.910156 204.105469 Z M 143.910156 204.105469 " fill-opacity="1" fill-rule="nonzero"/><g clip-path="url(#1cdd984a6e)"><path fill="#000000" d="M 179.722656 184.929688 C 179.722656 160.515625 163.761719 140.734375 144.097656 140.734375 C 124.4375 140.734375 108.472656 160.515625 108.472656 184.929688 C 108.472656 188.738281 124.4375 191.84375 144.097656 191.84375 C 163.761719 191.84375 179.722656 188.738281 179.722656 184.929688 Z M 144.097656 100.34375 C 154.824219 100.34375 163.511719 108.992188 163.511719 119.667969 C 163.511719 130.347656 154.824219 138.996094 144.097656 138.996094 C 133.371094 138.996094 124.683594 130.347656 124.683594 119.667969 C 124.683594 108.992188 133.371094 100.34375 144.097656 100.34375 Z M 144.097656 100.34375 " fill-opacity="1" fill-rule="evenodd"/></g></svg>